<?xml version="1.0" ?><svg height="60px" version="1.1" viewBox="0 0 44 60" width="44px" xmlns="http://www.w3.org/2000/svg" xmlns:xlink="http://www.w3.org/1999/xlink"><title/><desc/><g fill="none" fill-rule="evenodd" id="Page-1" stroke="none" stroke-width="1"><g id="008---Book"><path d="M20.342,58.973 L18.158,58.221 C18.0555695,58.186028 17.9444305,58.186028 17.842,58.221 L15.658,58.973 C15.502887,59.0247526 15.3322694,58.9973884 15.2011203,58.8997242 C15.0699712,58.80206 14.9948647,58.6464381 15,58.483 L15,51 L21,51 L21,58.483 C21.0051353,58.6464381 20.9300288,58.80206 20.7988797,58.8997242 C20.6677306,58.9973884 20.497113,59.0247526 20.342,58.973 Z" fill="#760000" id="Path"/><path d="M2,1 L37,1 C40.3137085,1 43,3.6862915 43,7 L43,47 C43,50.3137085 40.3137085,53 37,53 L2,53 C1.44771525,53 1,52.5522847 1,52 L1,2 C1,1.44771525 1.44771525,1 2,1 Z" fill="#76523A" id="Path"/><path d="M9,1 L9,53 L2,53 C1.44771525,53 1,52.5522847 1,52 L1,2 C1,1.44771525 1.44771525,1 2,1 L9,1 Z" fill="#634531" id="Path"/><rect fill="#F9D349" height="12" id="Rectangle" width="34" x="9" y="31"/><path d="M39,17 C38.4477153,17 38,16.5522847 38,16 L38,14 C38,13.4477153 38.4477153,13 39,13 C39.5522847,13 40,13.4477153 40,14 L40,16 C40,16.5522847 39.5522847,17 39,17 Z" fill="#FFFFFF" id="Path"/><path d="M39,11 C38.4477153,11 38,10.5522847 38,10 L38,7 C38,6.44771525 37.5522847,6 37,6 L33,6 C32.4477153,6 32,5.55228475 32,5 C32,4.44771525 32.4477153,4 33,4 L37,4 C38.6568542,4 40,5.34314575 40,7 L40,10 C40,10.5522847 39.5522847,11 39,11 Z" fill="#FFFFFF" id="Path"/><path d="M5,48 C4.44771525,48 4,47.5522847 4,47 L4,35 C4,34.4477153 4.44771525,34 5,34 C5.55228475,34 6,34.4477153 6,35 L6,47 C6,47.5522847 5.55228475,48 5,48 Z" fill="#FFFFFF" id="Path"/><path d="M5,32 C4.44771525,32 4,31.5522847 4,31 L4,29 C4,28.4477153 4.44771525,28 5,28 C5.55228475,28 6,28.4477153 6,29 L6,31 C6,31.5522847 5.55228475,32 5,32 Z" fill="#FFFFFF" id="Path"/><path d="M32,36 L16,36 C15.4477153,36 15,35.5522847 15,35 C15,34.4477153 15.4477153,34 16,34 L32,34 C32.5522847,34 33,34.4477153 33,35 C33,35.5522847 32.5522847,36 32,36 Z" fill="#FFFFFF" id="Path"/><path d="M25,40 L16,40 C15.4477153,40 15,39.5522847 15,39 C15,38.4477153 15.4477153,38 16,38 L25,38 C25.5522847,38 26,38.4477153 26,39 C26,39.5522847 25.5522847,40 25,40 Z" fill="#FFFFFF" id="Path"/><path d="M30,40 L29,40 C28.4477153,40 28,39.5522847 28,39 C28,38.4477153 28.4477153,38 29,38 L30,38 C30.5522847,38 31,38.4477153 31,39 C31,39.5522847 30.5522847,40 30,40 Z" fill="#FFFFFF" id="Path"/><path d="M37,0 L2,0 C0.8954305,-6.76353751e-17 0,0.8954305 0,2 L0,52 C0,53.1045695 0.8954305,54 2,54 L14,54 L14,58.483 C13.9995446,58.9750066 14.2363372,59.43705 14.636,59.724 C14.888618,59.9029552 15.190419,59.9993638 15.5,60 C15.6640894,60.0004293 15.8270644,59.9730413 15.982,59.919 L18,59.224 L20.016,59.918 C20.4703284,60.0744796 20.972236,60.0022466 21.364,59.724 C21.7636628,59.43705 22.0004554,58.9750066 22,58.483 L22,54 L37,54 C40.8639376,53.9950416 43.9950416,50.8639376 44,47 L44,7 C43.9955914,3.13583434 40.8641657,0.00440863597 37,0 Z M42,42 L10,42 L10,32 L42,32 L42,42 Z M2,2 L8,2 L8,52 L2,52 L2,2 Z M20,57.8 L18.482,57.277 C18.1691145,57.1707059 17.8298855,57.1707059 17.517,57.277 L16,57.8 L16,54 L20,54 L20,57.8 Z M37,52 L10,52 L10,44 L42,44 L42,47 C41.9966939,49.7600532 39.7600532,51.9966939 37,52 Z M42,30 L10,30 L10,2 L37,2 C39.7600532,2.00330612 41.9966939,4.23994685 42,7 L42,30 Z" fill="#000000" fill-rule="nonzero" id="Shape"/></g></g></svg>